<mxfile host="app.diagrams.net" modified="2021-02-12T23:56:49.254Z" agent="5.0 (Windows NT 10.0; Win64; x64) AppleWebKit/537.36 (KHTML, like Gecko) Chrome/88.0.4324.150 Safari/537.36" etag="Kd5sLTNDIZXJqEhzgrx0" version="14.3.1" type="github">
  <diagram id="9x8AgEFm8JcBs6ROT7dz" name="Page-1">
    <mxGraphModel dx="868" dy="482" grid="1" gridSize="10" guides="1" tooltips="1" connect="1" arrows="1" fold="1" page="1" pageScale="1" pageWidth="850" pageHeight="1100" math="0" shadow="0">
      <root>
        <mxCell id="0" />
        <mxCell id="1" parent="0" />
        <mxCell id="WwBl7ZBWBrr476BR-5NG-23" value="" style="strokeWidth=2;html=1;shape=mxgraph.flowchart.start_1;whiteSpace=wrap;" parent="1" vertex="1">
          <mxGeometry x="147" y="41" width="100" height="60" as="geometry" />
        </mxCell>
        <mxCell id="WwBl7ZBWBrr476BR-5NG-2" value="inicio" style="text;html=1;strokeColor=none;fillColor=none;align=center;verticalAlign=middle;whiteSpace=wrap;rounded=0;" parent="1" vertex="1">
          <mxGeometry x="177" y="61" width="40" height="20" as="geometry" />
        </mxCell>
        <mxCell id="WwBl7ZBWBrr476BR-5NG-4" value="" style="endArrow=classic;html=1;exitX=0.5;exitY=1;exitDx=0;exitDy=0;" parent="1" edge="1">
          <mxGeometry width="50" height="50" relative="1" as="geometry">
            <mxPoint x="197" y="101" as="sourcePoint" />
            <mxPoint x="197" y="141" as="targetPoint" />
            <Array as="points" />
          </mxGeometry>
        </mxCell>
        <mxCell id="WwBl7ZBWBrr476BR-5NG-6" value="" style="html=1;strokeWidth=2;shape=manualInput;whiteSpace=wrap;rounded=1;size=26;arcSize=11;" parent="1" vertex="1">
          <mxGeometry x="132" y="131" width="130" height="60" as="geometry" />
        </mxCell>
        <mxCell id="WwBl7ZBWBrr476BR-5NG-8" value="leer (C)" style="text;html=1;strokeColor=none;fillColor=none;align=center;verticalAlign=middle;whiteSpace=wrap;rounded=0;" parent="1" vertex="1">
          <mxGeometry x="168" y="161" width="60" height="20" as="geometry" />
        </mxCell>
        <mxCell id="WwBl7ZBWBrr476BR-5NG-10" value="" style="endArrow=classic;html=1;" parent="1" edge="1">
          <mxGeometry width="50" height="50" relative="1" as="geometry">
            <mxPoint x="196.5" y="191" as="sourcePoint" />
            <mxPoint x="197" y="231" as="targetPoint" />
          </mxGeometry>
        </mxCell>
        <mxCell id="WwBl7ZBWBrr476BR-5NG-15" value="" style="endArrow=classic;html=1;" parent="1" edge="1">
          <mxGeometry width="50" height="50" relative="1" as="geometry">
            <mxPoint x="196.5" y="301" as="sourcePoint" />
            <mxPoint x="196.5" y="341" as="targetPoint" />
            <Array as="points">
              <mxPoint x="196.5" y="321" />
            </Array>
          </mxGeometry>
        </mxCell>
        <mxCell id="WwBl7ZBWBrr476BR-5NG-18" value="" style="strokeWidth=2;html=1;shape=mxgraph.flowchart.display;whiteSpace=wrap;" parent="1" vertex="1">
          <mxGeometry x="123" y="342" width="150" height="70" as="geometry" />
        </mxCell>
        <mxCell id="WwBl7ZBWBrr476BR-5NG-19" value="" style="strokeWidth=2;html=1;shape=mxgraph.flowchart.start_1;whiteSpace=wrap;" parent="1" vertex="1">
          <mxGeometry x="148" y="445" width="100" height="60" as="geometry" />
        </mxCell>
        <mxCell id="WwBl7ZBWBrr476BR-5NG-21" value="" style="rounded=1;whiteSpace=wrap;html=1;absoluteArcSize=1;arcSize=14;strokeWidth=2;" parent="1" vertex="1">
          <mxGeometry x="137" y="231" width="120" height="70" as="geometry" />
        </mxCell>
        <mxCell id="WwBl7ZBWBrr476BR-5NG-12" value="F=9/5*C+32" style="text;html=1;strokeColor=none;fillColor=none;align=center;verticalAlign=middle;whiteSpace=wrap;rounded=0;" parent="1" vertex="1">
          <mxGeometry x="162" y="251" width="70" height="30" as="geometry" />
        </mxCell>
        <mxCell id="WwBl7ZBWBrr476BR-5NG-22" value="mostrar&amp;nbsp; C + &quot;en grados Fahrenheit es&quot; + F" style="text;html=1;strokeColor=none;fillColor=none;align=center;verticalAlign=middle;whiteSpace=wrap;rounded=0;" parent="1" vertex="1">
          <mxGeometry x="132" y="347" width="135" height="60" as="geometry" />
        </mxCell>
        <mxCell id="WwBl7ZBWBrr476BR-5NG-26" value="fin" style="text;html=1;strokeColor=none;fillColor=none;align=center;verticalAlign=middle;whiteSpace=wrap;rounded=0;" parent="1" vertex="1">
          <mxGeometry x="175.5" y="463" width="40" height="20" as="geometry" />
        </mxCell>
        <mxCell id="WwBl7ZBWBrr476BR-5NG-30" value="" style="endArrow=classic;html=1;" parent="1" edge="1">
          <mxGeometry width="50" height="50" relative="1" as="geometry">
            <mxPoint x="197" y="413" as="sourcePoint" />
            <mxPoint x="197" y="443" as="targetPoint" />
          </mxGeometry>
        </mxCell>
        <mxCell id="WwBl7ZBWBrr476BR-5NG-32" value="" style="strokeWidth=2;html=1;shape=mxgraph.flowchart.start_1;whiteSpace=wrap;" parent="1" vertex="1">
          <mxGeometry x="375" y="42" width="100" height="60" as="geometry" />
        </mxCell>
        <mxCell id="WwBl7ZBWBrr476BR-5NG-33" value="inicio" style="text;html=1;strokeColor=none;fillColor=none;align=center;verticalAlign=middle;whiteSpace=wrap;rounded=0;" parent="1" vertex="1">
          <mxGeometry x="405" y="62" width="40" height="20" as="geometry" />
        </mxCell>
        <mxCell id="WwBl7ZBWBrr476BR-5NG-34" value="" style="endArrow=classic;html=1;exitX=0.5;exitY=1;exitDx=0;exitDy=0;" parent="1" edge="1">
          <mxGeometry width="50" height="50" relative="1" as="geometry">
            <mxPoint x="425" y="102" as="sourcePoint" />
            <mxPoint x="425" y="142" as="targetPoint" />
            <Array as="points" />
          </mxGeometry>
        </mxCell>
        <mxCell id="WwBl7ZBWBrr476BR-5NG-35" value="" style="html=1;strokeWidth=2;shape=manualInput;whiteSpace=wrap;rounded=1;size=26;arcSize=11;" parent="1" vertex="1">
          <mxGeometry x="360" y="132" width="130" height="60" as="geometry" />
        </mxCell>
        <mxCell id="WwBl7ZBWBrr476BR-5NG-36" value="leer (x,y,z)" style="text;html=1;strokeColor=none;fillColor=none;align=center;verticalAlign=middle;whiteSpace=wrap;rounded=0;" parent="1" vertex="1">
          <mxGeometry x="396" y="162" width="60" height="20" as="geometry" />
        </mxCell>
        <mxCell id="WwBl7ZBWBrr476BR-5NG-37" value="" style="endArrow=classic;html=1;" parent="1" edge="1">
          <mxGeometry width="50" height="50" relative="1" as="geometry">
            <mxPoint x="424.5" y="192" as="sourcePoint" />
            <mxPoint x="425" y="232" as="targetPoint" />
          </mxGeometry>
        </mxCell>
        <mxCell id="WwBl7ZBWBrr476BR-5NG-38" value="" style="endArrow=classic;html=1;" parent="1" edge="1">
          <mxGeometry width="50" height="50" relative="1" as="geometry">
            <mxPoint x="424.5" y="302" as="sourcePoint" />
            <mxPoint x="424.5" y="342" as="targetPoint" />
            <Array as="points">
              <mxPoint x="424.5" y="322" />
            </Array>
          </mxGeometry>
        </mxCell>
        <mxCell id="WwBl7ZBWBrr476BR-5NG-39" value="" style="strokeWidth=2;html=1;shape=mxgraph.flowchart.display;whiteSpace=wrap;" parent="1" vertex="1">
          <mxGeometry x="350" y="343" width="150" height="70" as="geometry" />
        </mxCell>
        <mxCell id="phLKoRFh6NZ3l-u0MXx0-19" value="" style="edgeStyle=orthogonalEdgeStyle;rounded=0;orthogonalLoop=1;jettySize=auto;html=1;" edge="1" parent="1">
          <mxGeometry relative="1" as="geometry">
            <mxPoint x="428" y="415" as="sourcePoint" />
            <mxPoint x="426.5" y="443" as="targetPoint" />
          </mxGeometry>
        </mxCell>
        <mxCell id="WwBl7ZBWBrr476BR-5NG-40" value="" style="strokeWidth=2;html=1;shape=mxgraph.flowchart.start_1;whiteSpace=wrap;" parent="1" vertex="1">
          <mxGeometry x="378" y="444" width="100" height="60" as="geometry" />
        </mxCell>
        <mxCell id="WwBl7ZBWBrr476BR-5NG-41" value="" style="rounded=1;whiteSpace=wrap;html=1;absoluteArcSize=1;arcSize=14;strokeWidth=2;" parent="1" vertex="1">
          <mxGeometry x="365" y="232" width="120" height="70" as="geometry" />
        </mxCell>
        <mxCell id="WwBl7ZBWBrr476BR-5NG-42" value="P=(x+y+z)/3" style="text;html=1;strokeColor=none;fillColor=none;align=center;verticalAlign=middle;whiteSpace=wrap;rounded=0;" parent="1" vertex="1">
          <mxGeometry x="390" y="252" width="70" height="30" as="geometry" />
        </mxCell>
        <mxCell id="WwBl7ZBWBrr476BR-5NG-43" value="mostrar&amp;nbsp; &quot;el promedio del estudiante es&quot; + P" style="text;html=1;strokeColor=none;fillColor=none;align=center;verticalAlign=middle;whiteSpace=wrap;rounded=0;" parent="1" vertex="1">
          <mxGeometry x="360" y="346" width="140" height="60" as="geometry" />
        </mxCell>
        <mxCell id="WwBl7ZBWBrr476BR-5NG-44" value="fin" style="text;html=1;strokeColor=none;fillColor=none;align=center;verticalAlign=middle;whiteSpace=wrap;rounded=0;" parent="1" vertex="1">
          <mxGeometry x="406.5" y="460" width="40" height="20" as="geometry" />
        </mxCell>
        <mxCell id="phLKoRFh6NZ3l-u0MXx0-1" value="" style="strokeWidth=2;html=1;shape=mxgraph.flowchart.start_1;whiteSpace=wrap;" vertex="1" parent="1">
          <mxGeometry x="615" y="40" width="100" height="60" as="geometry" />
        </mxCell>
        <mxCell id="phLKoRFh6NZ3l-u0MXx0-2" value="inicio" style="text;html=1;strokeColor=none;fillColor=none;align=center;verticalAlign=middle;whiteSpace=wrap;rounded=0;" vertex="1" parent="1">
          <mxGeometry x="645" y="60" width="40" height="20" as="geometry" />
        </mxCell>
        <mxCell id="phLKoRFh6NZ3l-u0MXx0-3" value="" style="endArrow=classic;html=1;exitX=0.5;exitY=1;exitDx=0;exitDy=0;" edge="1" parent="1">
          <mxGeometry width="50" height="50" relative="1" as="geometry">
            <mxPoint x="665" y="100" as="sourcePoint" />
            <mxPoint x="665" y="140" as="targetPoint" />
            <Array as="points" />
          </mxGeometry>
        </mxCell>
        <mxCell id="phLKoRFh6NZ3l-u0MXx0-4" value="" style="html=1;strokeWidth=2;shape=manualInput;whiteSpace=wrap;rounded=1;size=26;arcSize=11;" vertex="1" parent="1">
          <mxGeometry x="600" y="130" width="130" height="60" as="geometry" />
        </mxCell>
        <mxCell id="phLKoRFh6NZ3l-u0MXx0-5" value="leer (a,b,c)" style="text;html=1;strokeColor=none;fillColor=none;align=center;verticalAlign=middle;whiteSpace=wrap;rounded=0;" vertex="1" parent="1">
          <mxGeometry x="636" y="160" width="60" height="20" as="geometry" />
        </mxCell>
        <mxCell id="phLKoRFh6NZ3l-u0MXx0-6" value="" style="endArrow=classic;html=1;" edge="1" parent="1">
          <mxGeometry width="50" height="50" relative="1" as="geometry">
            <mxPoint x="664.5" y="190" as="sourcePoint" />
            <mxPoint x="665" y="230" as="targetPoint" />
          </mxGeometry>
        </mxCell>
        <mxCell id="phLKoRFh6NZ3l-u0MXx0-7" value="" style="endArrow=classic;html=1;" edge="1" parent="1">
          <mxGeometry width="50" height="50" relative="1" as="geometry">
            <mxPoint x="664.5" y="300" as="sourcePoint" />
            <mxPoint x="664.5" y="340" as="targetPoint" />
            <Array as="points">
              <mxPoint x="664.5" y="320" />
            </Array>
          </mxGeometry>
        </mxCell>
        <mxCell id="phLKoRFh6NZ3l-u0MXx0-8" value="" style="strokeWidth=2;html=1;shape=mxgraph.flowchart.display;whiteSpace=wrap;" vertex="1" parent="1">
          <mxGeometry x="590" y="340" width="150" height="70" as="geometry" />
        </mxCell>
        <mxCell id="phLKoRFh6NZ3l-u0MXx0-9" value="" style="strokeWidth=2;html=1;shape=mxgraph.flowchart.start_1;whiteSpace=wrap;" vertex="1" parent="1">
          <mxGeometry x="618" y="443" width="100" height="60" as="geometry" />
        </mxCell>
        <mxCell id="phLKoRFh6NZ3l-u0MXx0-10" value="" style="rounded=1;whiteSpace=wrap;html=1;absoluteArcSize=1;arcSize=14;strokeWidth=2;" vertex="1" parent="1">
          <mxGeometry x="598" y="230" width="135" height="70" as="geometry" />
        </mxCell>
        <mxCell id="phLKoRFh6NZ3l-u0MXx0-11" value="S=(4*a+0*c)-b" style="text;html=1;strokeColor=none;fillColor=none;align=center;verticalAlign=middle;whiteSpace=wrap;rounded=0;" vertex="1" parent="1">
          <mxGeometry x="630" y="250" width="80" height="30" as="geometry" />
        </mxCell>
        <mxCell id="phLKoRFh6NZ3l-u0MXx0-12" value="mostrar&amp;nbsp; &quot;el puntaje final es&quot; + S" style="text;html=1;strokeColor=none;fillColor=none;align=center;verticalAlign=middle;whiteSpace=wrap;rounded=0;" vertex="1" parent="1">
          <mxGeometry x="600" y="345" width="135" height="60" as="geometry" />
        </mxCell>
        <mxCell id="phLKoRFh6NZ3l-u0MXx0-13" value="fin" style="text;html=1;strokeColor=none;fillColor=none;align=center;verticalAlign=middle;whiteSpace=wrap;rounded=0;" vertex="1" parent="1">
          <mxGeometry x="648" y="462" width="40" height="20" as="geometry" />
        </mxCell>
        <mxCell id="phLKoRFh6NZ3l-u0MXx0-14" value="" style="endArrow=classic;html=1;exitX=0.5;exitY=1;exitDx=0;exitDy=0;exitPerimeter=0;" edge="1" parent="1">
          <mxGeometry width="50" height="50" relative="1" as="geometry">
            <mxPoint x="666" y="410" as="sourcePoint" />
            <mxPoint x="667" y="440" as="targetPoint" />
          </mxGeometry>
        </mxCell>
      </root>
    </mxGraphModel>
  </diagram>
</mxfile>
